<?xml version="1.0" encoding="utf-8"?>
<!-- Generator: Adobe Illustrator 23.0.2, SVG Export Plug-In . SVG Version: 6.00 Build 0)  -->
<svg version="1.1" id="Lag_1" xmlns="http://www.w3.org/2000/svg" xmlns:xlink="http://www.w3.org/1999/xlink" x="0px" y="0px"
	 viewBox="0 0 1000 1000" style="enable-background:new 0 0 1000 1000;" xml:space="preserve">
<style type="text/css">
	.st0{stroke:#000000;stroke-miterlimit:10;}
	.st1{fill:#ED1C24;stroke:#FBB03B;stroke-width:3;stroke-miterlimit:10;}
	.st2{fill:none;stroke:#000000;stroke-width:3.1;stroke-miterlimit:10;}
	.st3{fill:#EDC124;stroke:#FB371D;stroke-width:32;stroke-miterlimit:10;}
</style>
<g id="bombe">
	<g>
		<path d="M471,783.5c-112.8,0-204.5-91.7-204.5-204.5S358.2,374.5,471,374.5c24.2,0,47.8,4.2,70.3,12.4
			c38.9,14.3,72.3,39.8,96.4,73.7c24.7,34.7,37.7,75.6,37.7,118.4C675.5,691.8,583.8,783.5,471,783.5z"/>
		<path d="M471,375c24.1,0,47.7,4.2,70.2,12.4c19.3,7.1,37.5,17.1,53.9,29.6c16.2,12.5,30.5,27.2,42.3,43.9
			C662,495.5,675,536.4,675,579c0,27.5-5.4,54.3-16,79.4c-10.3,24.3-25,46.1-43.7,64.8s-40.6,33.4-64.8,43.7
			c-25.1,10.6-51.9,16-79.4,16s-54.3-5.4-79.4-16c-24.3-10.3-46.1-25-64.8-43.7c-18.7-18.7-33.4-40.6-43.7-64.8
			c-10.6-25.1-16-51.9-16-79.4s5.4-54.3,16-79.4c10.3-24.3,25-46.1,43.7-64.8s40.6-33.4,64.8-43.7C416.7,380.4,443.5,375,471,375
			 M471,374c-113.2,0-205,91.8-205,205s91.8,205,205,205s205-91.8,205-205c0-88.4-56-163.8-134.5-192.5
			C519.5,378.4,495.8,374,471,374L471,374z"/>
	</g>
	<rect x="536" y="335" transform="matrix(0.5 -0.866 0.866 0.5 -54.8325 695.006)" class="st0" width="77" height="120"/>
</g>
<g id="lunde-ild">
	<polyline class="st1" points="307.6,210.6 251.5,181.5 291.5,191.5 261.5,156.5 297.5,181.5 292.5,131.5 307.5,175.5 327.5,135.5 
		319.5,179.5 352.5,161.5 307.6,210.6 	"/>
</g>
<g id="lunde">
	<path class="st2" d="M583,378c9-13.9,18.2-28.1,22.5-44.1s3.1-34.3-7.3-47.3c-10.3-12.9-27.3-18.2-43.2-22.7
		c-24.1-6.7-50.7-12.9-73.4-2.3c-19.2,9-31.1,27.9-46.2,42.6c-15.7,15.3-35.6,26.3-57,31.6c-14.6,3.6-30.4,4.5-44.3-1.2
		c-18.8-7.6-31.4-26.1-36.7-45.5c-4.6-16.8-4.5-34.8,0.2-51.5c2.9-10.3,7.6-20.6,6.6-31.2"/>
	<path class="st2" d="M774.5,366.5"/>
</g>
<g id="eksplotion">
	<polygon class="st3" points="567.8,290.9 490.3,78.9 453.3,275.1 286.3,154.2 377.3,316.9 101.7,309.9 344.8,425.6 226.4,520.8 
		388,499 259.1,705 436.5,532.1 411.9,675.1 478.9,551.9 559.8,782.2 577.6,535.7 730.9,639.2 626,459 836.9,523.9 640.9,407.2 
		768,363.3 636.2,354.7 728.4,185.4 	"/>
</g>
</svg>
