<?xml version="1.0" encoding="utf-8"?>
<!-- Generator: Adobe Illustrator 23.0.2, SVG Export Plug-In . SVG Version: 6.00 Build 0)  -->
<svg version="1.1" xmlns="http://www.w3.org/2000/svg" xmlns:xlink="http://www.w3.org/1999/xlink" x="0px" y="0px"
	 viewBox="0 0 1000 1000" style="enable-background:new 0 0 1000 1000;" xml:space="preserve">
<style type="text/css">
	.st0{fill:#808080;}
	.st1{fill:#999999;}
	.st2{fill:#E1E1E6;}
	.st3{fill:#0071BC;}
	.st4{fill:#B95A24;}
	.st5{fill:#F95A24;}
	.st6{fill:#FFCD3B;}
</style>
<g id="måne">
	<g>
		<path class="st0" d="M39,860h902C941,860,542.1,608.4,39,860z"/>
		<circle class="st1" cx="273.6" cy="814.4" r="18.2"/>
		<circle class="st1" cx="740.9" cy="824.2" r="31.9"/>
		<circle class="st1" cx="838" cy="836.5" r="18.2"/>
		<circle class="st1" cx="402" cy="812.4" r="31.9"/>
	</g>
</g>
<g id="raket">
	<g>
		<rect x="444" y="752" class="st1" width="137" height="44"/>
		<path class="st2" d="M522.8,394c0,0-66.5,38-86.5,140s-11.6,243-11.6,243h178c0,0,4.4-184.4-2.5-242
			C589.3,445,522.8,394,522.8,394z"/>
		<line class="st1" x1="620" y1="530" x2="620" y2="530"/>
		<circle class="st3" cx="517.5" cy="525.5" r="30.5"/>
		<path class="st4" d="M600.7,617.4c0,0,85.1,188.4,78.7,213.3c-4.5,17.4-56-61.6-56-61.6s-16.3-21.3-20.2,1.2
			S600.7,617.4,600.7,617.4z"/>
		<path class="st4" d="M426.5,618.4c0,0-85.1,188.4-78.7,213.3c4.5,17.4,56-61.6,56-61.6s16.3-21.3,20.2,1.2
			C427.8,793.7,426.5,618.4,426.5,618.4z"/>
		<polygon class="st4" points="475,441 565,441 523,382 		"/>
	</g>
</g>
<g id="raket-ild">
	<g>
		<path class="st5" d="M452.3,796h118.5c0,0,7.2,87-62.8,130C508,926,446.6,882,452.3,796z"/>
		<path class="st6" d="M466.6,796h90.2c0,0,5.5,66.3-47.8,99C509,895,462.3,861.5,466.6,796z"/>
	</g>
</g>
</svg>
