<svg xmlns="http://www.w3.org/2000/svg" viewBox="0 0 2071 191.5"><defs><style>.a{fill:#f7931e;}.b{fill:#ed1c24;}</style></defs><title>Spil-ild</title><polygon class="a" points="85 191 217 0 307 191 467 0 553 191 685 0 793 191 909 0 1045 191 1165 0 1269 191 1375 0 1483 191 1573 0 1713 191 1813 0 1919 191 2006 6 2071 191 85 191"/><polygon class="b" points="0 191.5 132 0.5 222 191.5 382 0.5 468 191.5 600 0.5 708 191.5 824 0.5 960 191.5 1080 0.5 1184 191.5 1290 0.5 1398 191.5 1488 0.5 1628 191.5 1728 0.5 1834 191.5 1921 6.5 1986 191.5 0 191.5"/></svg>