<?xml version="1.0" encoding="utf-8"?>
<!-- Generator: Adobe Illustrator 23.0.2, SVG Export Plug-In . SVG Version: 6.00 Build 0)  -->
<svg version="1.1" xmlns="http://www.w3.org/2000/svg" xmlns:xlink="http://www.w3.org/1999/xlink" x="0px" y="0px"
	 viewBox="0 0 1000 1000" style="enable-background:new 0 0 1000 1000;" xml:space="preserve">
<style type="text/css">
	.st0{fill:#00FF00;}
	.st1{fill:#333333;}
	.st2{fill:#666666;}
	.st3{fill:#FF0000;}
</style>
<g id="green">
	<g>
		<path class="st0" d="M279.9,713.2h-20.6c-2.9,0-5.2-2.3-5.2-5.2V121.2c0-2.9,2.3-5.2,5.2-5.2h20.6c2.9,0,5.2,2.3,5.2,5.2V708
			C285.1,710.9,282.8,713.2,279.9,713.2z"/>
		<rect x="250.1" y="705.4" class="st1" width="38.9" height="192.6"/>
		<rect x="246.2" y="718.3" class="st2" width="46.7" height="15.2"/>
		<rect x="250.1" y="878.5" class="st0" width="38.9" height="5.8"/>
		<rect x="250.1" y="742.4" class="st0" width="38.9" height="5.8"/>
	</g>
</g>
<g id="red">
	<g>
		<path class="st3" d="M703.9,710.2h-20.6c-2.9,0-5.2-2.3-5.2-5.2V118.2c0-2.9,2.3-5.2,5.2-5.2h20.6c2.9,0,5.2,2.3,5.2,5.2V705
			C709.1,707.9,706.8,710.2,703.9,710.2z"/>
		<rect x="674.1" y="702.4" class="st1" width="38.9" height="192.6"/>
		<rect x="670.2" y="715.3" class="st2" width="46.7" height="15.2"/>
		<rect x="674.1" y="752.5" class="st3" width="38.9" height="5.8"/>
		<rect x="674.1" y="739.4" class="st3" width="38.9" height="5.8"/>
	</g>
</g>
</svg>
